<?xml version="1.0" encoding="UTF-8"?>
<!DOCTYPE svg PUBLIC "-//W3C//DTD SVG 1.1//EN" "http://www.w3.org/Graphics/SVG/1.1/DTD/svg11.dtd">
<!-- Creator: CorelDRAW -->
<svg xmlns="http://www.w3.org/2000/svg" xml:space="preserve" width="6.82666in" height="6.82666in" style="shape-rendering:geometricPrecision; text-rendering:geometricPrecision; image-rendering:optimizeQuality; fill-rule:evenodd; clip-rule:evenodd"
viewBox="0 0 6.82666 6.82666"
 xmlns:xlink="http://www.w3.org/1999/xlink">
 <defs>
  <style type="text/css">
   <![CDATA[
    .fil0 {fill:#424242}
    .fil1 {fill:#FFFFFE}
    .fil2 {fill:#FFFFFE;fill-rule:nonzero}
   ]]>
  </style>
 </defs>
 <rect class="fil0" width="6.82666" height="6.82666"/>
 <g id="Layer_x0020_1">
  <metadata id="CorelCorpID_0Corel-Layer"/>
  <g id="_501818816">
   <path id="_501819560" class="fil1" d="M1.41666 5.00939l3.99334 0 0 0.971535 -3.99334 0 0 -0.971535zm0.441752 0.272579l1.08153 0 0 0.124791 -1.08153 0 0 -0.124791zm0 0.301587l1.08153 0 0 0.124791 -1.08153 0 0 -0.124791zm1.56935 -0.266122c0.0981575,0 0.177728,0.0795709 0.177728,0.177728 0,0.0981535 -0.0795709,0.177724 -0.177728,0.177724 -0.0981575,0 -0.177724,-0.0795709 -0.177724,-0.177724 0,-0.0981575 0.0795669,-0.177728 0.177724,-0.177728zm0.510508 0.0226811l0.364417 0 0 0.310091 -0.364417 0 0 -0.310091zm0.665555 0l0.364417 0 0 0.310091 -0.364417 0 0 -0.310091z"/>
   <path id="_501819872" class="fil2" d="M6.01868 2.50592c0,-0.287181 -0.116413,-0.547185 -0.304614,-0.735386 -0.188201,-0.188201 -0.448205,-0.304614 -0.735386,-0.304614 -0.0766181,0 -0.151449,0.00836614 -0.223606,0.0242205 -0.0491417,0.0107992 -0.0970354,0.0251024 -0.143402,0.042626 -0.11285,-0.197689 -0.274079,-0.364441 -0.467654,-0.484197 -0.20787,-0.128598 -0.452571,-0.202831 -0.714224,-0.202831 -0.348634,0 -0.666807,0.131512 -0.907681,0.347697 -0.219193,0.196724 -0.374142,0.463516 -0.429591,0.765035 -0.0314173,-0.00995669 -0.0634961,-0.018378 -0.0961535,-0.0251732 -0.0657638,-0.013689 -0.133256,-0.0208937 -0.201724,-0.0208937 -0.272453,0 -0.519122,0.110441 -0.697673,0.288992 -0.178551,0.178551 -0.288992,0.42522 -0.288992,0.697673 0,0.266228 0.203295,0.473154 0.528685,0.622087l0 -0.614843 7.87402e-006 -0.118449 0.708713 -0.566984 2.73589 0 0.708709 0.566976 1.1811e-005 0.118457 0 0.365965c0.325441,-0.20028 0.528685,-0.455858 0.528685,-0.766358z"/>
   <path id="_501819920" class="fil1" d="M1.41666 3.95785l3.99334 0 0 0.971535 -3.99334 0 0 -0.971535zm0.441752 0.272579l1.08153 0 0 0.124791 -1.08153 0 0 -0.124791zm0 0.301587l1.08153 0 0 0.124791 -1.08153 0 0 -0.124791zm1.56935 -0.266122c0.0981575,0 0.177728,0.0795709 0.177728,0.177728 0,0.0981535 -0.0795709,0.177724 -0.177728,0.177724 -0.0981575,0 -0.177724,-0.0795709 -0.177724,-0.177724 0,-0.0981575 0.0795669,-0.177728 0.177724,-0.177728zm0.510508 0.0226811l0.364417 0 0 0.310091 -0.364417 0 0 -0.310091zm0.665555 0l0.364417 0 0 0.310091 -0.364417 0 0 -0.310091z"/>
   <g>
    <polygon id="_501819008" class="fil1" points="1.41667,2.82631 5.41,2.82631 4.75321,2.30088 2.07345,2.30088 "/>
    <path id="_501819272" class="fil1" d="M1.41666 2.90632l3.99334 0 0 0.971535 -3.99334 0 0 -0.971535zm0.441752 0.272579l1.08153 0 0 0.124791 -1.08153 0 0 -0.124791zm0 0.301587l1.08153 0 0 0.124791 -1.08153 0 0 -0.124791zm1.56935 -0.266122c0.0981575,0 0.177728,0.0795709 0.177728,0.177728 0,0.0981535 -0.0795709,0.177724 -0.177728,0.177724 -0.0981575,0 -0.177724,-0.0795709 -0.177724,-0.177724 0,-0.0981575 0.0795669,-0.177728 0.177724,-0.177728zm0.510508 0.0226811l0.364417 0 0 0.310091 -0.364417 0 0 -0.310091zm0.665555 0l0.364417 0 0 0.310091 -0.364417 0 0 -0.310091z"/>
   </g>
  </g>
 </g>
</svg>
